<svg id="ico-whatsapp" xmlns="http://www.w3.org/2000/svg" width="24.123" height="24.123" viewBox="0 0 24.123 24.123">
  <path id="Caminho_43043" data-name="Caminho 43043" d="M13.061,1A12.052,12.052,0,0,0,2.945,19.617L1.065,24a.8.8,0,0,0,1.056,1.055l4.386-1.88A12.059,12.059,0,1,0,13.061,1Zm6.191,16.379a6.5,6.5,0,0,1-1.728,1.587c-1.842.762-4.443,0-7.406-2.962S6.394,10.44,7.157,8.6A6.487,6.487,0,0,1,8.744,6.871a.937.937,0,0,1,1.2.075L11.4,8.4a.807.807,0,0,1,0,1.137l-.913.912s-.37,1.11,1.852,3.333,3.333,1.852,3.333,1.852l.912-.913a.807.807,0,0,1,1.137,0l1.455,1.455a.937.937,0,0,1,.075,1.2Z" transform="translate(-1 -1)" fill="#fff"/>
</svg>
